<svg xmlns="http://www.w3.org/2000/svg" xmlns:xlink="http://www.w3.org/1999/xlink" width="500" zoomAndPan="magnify" viewBox="0 0 375 374.999991" height="500" preserveAspectRatio="xMidYMid meet" version="1.0"><defs><g/></defs><path stroke-linecap="butt" transform="matrix(0.75, 0, 0, 0.75, 96.637455, -0.962265)" fill="none" stroke-linejoin="miter" d="M 161.978196 281.881997 C 161.978196 287.288247 160.233404 292.855956 156.733404 298.579915 C 153.233403 304.303873 148.644861 309.84554 142.972986 315.199707 C 137.301111 320.553874 130.936527 325.621583 123.889652 330.392417 C 116.837568 335.16325 109.733401 339.376792 102.571942 343.033042 C 95.415691 346.694501 88.551108 349.611168 81.97819 351.783043 C 75.405273 353.954918 69.837565 355.095543 65.275064 355.204918 C 60.931314 355.413252 56.264647 355.04346 51.280272 354.090335 C 46.295896 353.13721 41.551104 351.944501 37.045896 350.51221 C 32.540687 349.079918 28.509437 347.543459 24.957353 345.897626 C 21.40527 344.257001 18.993811 342.798667 17.71777 341.522626 C 16.978186 340.673667 16.368811 339.746584 15.889644 338.741376 C 15.415686 337.736167 15.176103 336.621584 15.176103 335.402834 C 15.176103 334.184084 15.519853 332.908042 16.207353 331.585125 C 16.900061 330.257 18.035478 328.908042 19.629228 327.527833 C 21.113603 326.361166 22.96777 324.876791 25.196937 323.074708 C 27.103187 321.590333 29.540687 319.652833 32.509437 317.267416 C 35.478187 314.881999 39.139646 311.991374 43.488605 308.600749 C 41.894854 310.18929 40.889646 311.673665 40.462563 313.053874 C 40.040688 314.434082 39.879229 315.704916 39.988604 316.871582 C 40.092771 318.142416 40.519854 319.309083 41.259438 320.371583 C 42.321938 321.746583 44.176105 323.28825 46.827146 324.980958 C 49.478188 326.678875 52.686522 328.241375 56.446939 329.673667 C 60.212564 331.105958 64.457356 332.298667 69.170898 333.251792 C 73.889648 334.210125 78.795899 334.684084 83.884441 334.684084 C 90.139649 334.684084 96.342775 334.074709 102.493817 332.855958 C 108.644859 331.637208 114.186526 329.595542 119.11361 326.730958 C 124.045902 323.871583 128.025068 320.079916 131.045902 315.361166 C 134.066736 310.642415 135.577152 304.78304 135.577152 297.78304 C 135.577152 291.314289 134.066736 285.616372 131.045902 280.689288 C 128.025068 275.756996 124.071943 271.329913 119.196943 267.408038 C 114.316734 263.480954 108.722984 259.902829 102.415692 256.668453 C 96.1084 253.434078 89.691733 250.225745 83.170899 247.048661 C 76.650065 243.866369 70.233398 240.631994 63.926106 237.345536 C 57.613606 234.059077 52.019855 230.371577 47.144855 226.288243 C 42.264646 222.210118 38.316729 217.595534 35.295896 212.454909 C 32.275062 207.309075 30.764645 201.345533 30.764645 194.559074 C 30.764645 187.986157 32.379229 181.543449 35.613604 175.236156 C 38.847979 168.923656 43.113605 162.986156 48.415688 157.418447 C 53.717772 151.855947 59.790689 146.684071 66.629231 141.913238 C 73.467773 137.142404 80.493815 133.033029 87.702149 129.585112 C 94.915691 126.142403 101.993817 123.439278 108.936526 121.475736 C 115.884443 119.512194 122.165693 118.480944 127.785485 118.371569 C 133.191735 118.267403 138.389652 118.506986 143.374028 119.090319 C 148.353195 119.673653 152.545903 120.548653 155.936529 121.71532 C 159.332362 122.881986 161.660487 124.34032 162.936529 126.085112 C 164.207363 127.835112 163.889654 129.824695 161.978196 132.053862 C 160.389654 133.855945 158.426112 135.762196 156.097987 137.777821 C 153.972987 139.579904 151.379237 141.595529 148.301111 143.819488 C 145.228195 146.048655 141.462569 148.434071 137.009444 150.980947 C 137.858402 149.704905 138.332361 148.569488 138.441736 147.559071 C 138.545902 146.553863 138.493819 145.730946 138.280277 145.095529 C 137.962569 144.350738 137.540694 143.715321 137.009444 143.184071 C 136.264652 142.548654 134.967777 141.861154 133.11361 141.116363 C 131.259444 140.376779 128.952152 139.631987 126.191735 138.892404 C 123.436527 138.147612 120.306318 137.538237 116.811526 137.064279 C 113.311526 136.585112 109.597984 136.345529 105.676109 136.345529 C 99.311525 136.345529 93.191733 137.116362 87.306316 138.652821 C 81.420899 140.189279 76.222982 142.548654 71.717773 145.730946 C 67.212564 148.913238 63.608398 152.93928 60.905272 157.819489 C 58.196939 162.694489 56.84798 168.423656 56.84798 174.996573 C 56.84798 182.204907 58.358397 188.517407 61.379231 193.923658 C 64.400064 199.329908 68.379231 204.131992 73.306315 208.319492 C 78.238607 212.506992 83.858399 216.298659 90.170899 219.689284 C 96.478191 223.085118 102.894858 226.345535 109.415692 229.470535 C 115.936526 232.600744 122.347985 235.809077 128.660485 239.095536 C 134.967777 242.381994 140.587569 246.038244 145.519861 250.069495 C 150.446945 254.100745 154.426112 258.684079 157.446945 263.824704 C 160.467779 268.970538 161.978196 274.986163 161.978196 281.881997 Z M 161.978196 281.881997 " stroke="#ffffff" stroke-width="24.43095" stroke-opacity="1" stroke-miterlimit="4"/><g fill="#025492" fill-opacity="1"><g transform="translate(104.559329, 260.787718)"><g><path d="M 113.5625 -50.34375 C 113.5625 -46.28125 112.25 -42.101562 109.625 -37.8125 C 107 -33.519531 103.554688 -29.363281 99.296875 -25.34375 C 95.046875 -21.332031 90.273438 -17.535156 84.984375 -13.953125 C 79.703125 -10.378906 74.375 -7.21875 69 -4.46875 C 63.632812 -1.726562 58.488281 0.453125 53.5625 2.078125 C 48.632812 3.710938 44.457031 4.570312 41.03125 4.65625 C 37.769531 4.8125 34.269531 4.53125 30.53125 3.8125 C 26.800781 3.101562 23.242188 2.207031 19.859375 1.125 C 16.484375 0.0507812 13.460938 -1.097656 10.796875 -2.328125 C 8.128906 -3.554688 6.320312 -4.648438 5.375 -5.609375 C 4.8125 -6.242188 4.347656 -6.9375 3.984375 -7.6875 C 3.628906 -8.445312 3.453125 -9.285156 3.453125 -10.203125 C 3.453125 -11.117188 3.710938 -12.070312 4.234375 -13.0625 C 4.753906 -14.050781 5.609375 -15.066406 6.796875 -16.109375 C 7.910156 -16.984375 9.300781 -18.09375 10.96875 -19.4375 C 12.40625 -20.550781 14.234375 -22.003906 16.453125 -23.796875 C 18.679688 -25.585938 21.425781 -27.753906 24.6875 -30.296875 C 23.5 -29.109375 22.742188 -27.992188 22.421875 -26.953125 C 22.109375 -25.921875 21.988281 -24.96875 22.0625 -24.09375 C 22.144531 -23.144531 22.46875 -22.269531 23.03125 -21.46875 C 23.820312 -20.4375 25.210938 -19.285156 27.203125 -18.015625 C 29.191406 -16.742188 31.597656 -15.570312 34.421875 -14.5 C 37.242188 -13.425781 40.421875 -12.53125 43.953125 -11.8125 C 47.492188 -11.09375 51.175781 -10.734375 55 -10.734375 C 59.6875 -10.734375 64.335938 -11.191406 68.953125 -12.109375 C 73.566406 -13.023438 77.722656 -14.554688 81.421875 -16.703125 C 85.117188 -18.847656 88.097656 -21.691406 90.359375 -25.234375 C 92.628906 -28.773438 93.765625 -33.164062 93.765625 -38.40625 C 93.765625 -43.257812 92.628906 -47.535156 90.359375 -51.234375 C 88.097656 -54.929688 85.132812 -58.25 81.46875 -61.1875 C 77.8125 -64.132812 73.617188 -66.820312 68.890625 -69.25 C 64.160156 -71.675781 59.347656 -74.082031 54.453125 -76.46875 C 49.566406 -78.851562 44.753906 -81.273438 40.015625 -83.734375 C 35.285156 -86.203125 31.09375 -88.96875 27.4375 -92.03125 C 23.78125 -95.09375 20.816406 -98.550781 18.546875 -102.40625 C 16.285156 -106.269531 15.15625 -110.742188 15.15625 -115.828125 C 15.15625 -120.765625 16.363281 -125.597656 18.78125 -130.328125 C 21.207031 -135.054688 24.410156 -139.507812 28.390625 -143.6875 C 32.367188 -147.863281 36.921875 -151.738281 42.046875 -155.3125 C 47.179688 -158.894531 52.453125 -161.976562 57.859375 -164.5625 C 63.265625 -167.144531 68.570312 -169.171875 73.78125 -170.640625 C 78.988281 -172.117188 83.703125 -172.894531 87.921875 -172.96875 C 91.972656 -173.050781 95.867188 -172.875 99.609375 -172.4375 C 103.347656 -172 106.488281 -171.34375 109.03125 -170.46875 C 111.570312 -169.59375 113.320312 -168.5 114.28125 -167.1875 C 115.238281 -165.875 115 -164.382812 113.5625 -162.71875 C 112.375 -161.363281 110.90625 -159.929688 109.15625 -158.421875 C 107.5625 -157.066406 105.609375 -155.554688 103.296875 -153.890625 C 100.992188 -152.222656 98.175781 -150.429688 94.84375 -148.515625 C 95.476562 -149.472656 95.832031 -150.328125 95.90625 -151.078125 C 95.988281 -151.835938 95.953125 -152.457031 95.796875 -152.9375 C 95.554688 -153.488281 95.238281 -153.960938 94.84375 -154.359375 C 94.28125 -154.835938 93.300781 -155.351562 91.90625 -155.90625 C 90.519531 -156.46875 88.789062 -157.023438 86.71875 -157.578125 C 84.65625 -158.140625 82.3125 -158.597656 79.6875 -158.953125 C 77.0625 -159.316406 74.28125 -159.5 71.34375 -159.5 C 66.570312 -159.5 61.976562 -158.921875 57.5625 -157.765625 C 53.144531 -156.609375 49.242188 -154.835938 45.859375 -152.453125 C 42.484375 -150.066406 39.78125 -147.046875 37.75 -143.390625 C 35.726562 -139.734375 34.71875 -135.4375 34.71875 -130.5 C 34.71875 -125.09375 35.847656 -120.363281 38.109375 -116.3125 C 40.378906 -112.257812 43.363281 -108.660156 47.0625 -105.515625 C 50.757812 -102.367188 54.972656 -99.523438 59.703125 -96.984375 C 64.429688 -94.441406 69.242188 -91.992188 74.140625 -89.640625 C 79.035156 -87.296875 83.847656 -84.890625 88.578125 -82.421875 C 93.304688 -79.960938 97.519531 -77.222656 101.21875 -74.203125 C 104.914062 -71.179688 107.894531 -67.738281 110.15625 -63.875 C 112.425781 -60.019531 113.5625 -55.507812 113.5625 -50.34375 Z M 113.5625 -50.34375 "/></g></g></g><path stroke-linecap="butt" transform="matrix(0.75, 0, 0, 0.75, 150.087489, 97.059054)" fill="none" stroke-linejoin="miter" d="M 52.404185 267.733779 C 47.898976 270.285863 43.581267 272.410863 39.461476 274.113988 C 35.336475 275.811905 31.487517 277.17128 27.919808 278.192113 C 24.346891 279.212947 21.138558 279.936905 18.289599 280.363989 C 15.440641 280.785864 12.992724 280.999405 10.956265 280.999405 L -8.179153 280.999405 L 5.727098 273.218155 C 7.169807 271.348363 8.570849 269.478571 9.935432 267.608779 C 11.294807 265.738988 12.44064 263.994196 13.37814 262.379612 C 14.482307 260.593154 15.503141 258.806695 16.440641 257.020237 C 19.076058 251.66607 22.987516 242.994194 28.169808 231.00461 C 30.300017 225.900443 32.826058 219.822318 35.763559 212.765026 C 38.69585 205.707734 42.076059 197.4994 45.898976 188.150441 C 49.727101 178.796274 53.977101 168.166065 58.654185 156.259814 C 63.331269 144.358771 68.560436 131.009812 74.341686 116.212936 L 96.534396 95.806685 L 146.534399 265.311904 C 150.102108 266.249404 153.529191 266.843154 156.800025 267.098363 C 160.076067 267.353571 163.154192 267.478571 166.044817 267.478571 C 167.576067 267.478571 168.982317 267.457738 170.258359 267.416071 C 171.529193 267.374404 172.638568 267.311904 173.570859 267.223363 C 174.591693 267.140029 175.570859 267.015029 176.50836 266.843154 C 171.576068 269.223363 167.279192 271.285863 163.622942 273.030655 C 159.966692 274.770238 156.716692 276.238988 153.867733 277.426488 C 151.018775 278.619197 148.383358 279.509822 145.961483 280.10878 C 143.534399 280.70253 141.091691 280.999405 138.62294 280.999405 L 118.216689 280.999405 L 124.852106 276.791072 L 104.445855 209.192109 C 101.977105 209.874401 99.128146 210.530651 95.898979 211.171276 C 92.664604 211.806692 88.820854 212.379609 84.357312 212.890026 C 79.89377 213.400443 74.70627 213.869193 68.794811 214.296276 C 62.883352 214.718151 56.060435 215.103568 48.326059 215.442109 C 44.753143 223.009818 41.477101 229.728569 38.503142 235.593152 C 35.529184 241.462944 32.846892 246.561903 30.466683 250.900445 C 28.086475 255.233779 25.982308 258.890029 24.154183 261.869196 C 22.326058 264.843154 20.773974 267.223363 19.497933 269.009821 C 20.945849 269.26503 22.560433 269.457738 24.346891 269.582738 C 26.13335 269.712946 27.919808 269.775446 29.701058 269.775446 C 32.425017 269.775446 35.122934 269.67128 37.800017 269.457738 C 40.482309 269.244196 42.925017 269.009821 45.133351 268.754613 C 47.685434 268.416071 50.10731 268.077529 52.404185 267.733779 Z M 70.263561 200.265025 C 81.742728 200.265025 92.159396 200.009817 101.508355 199.4994 L 81.997937 134.707729 C 76.721895 148.228563 71.898978 160.301481 67.518769 170.93169 C 63.13856 181.55669 58.997935 191.337941 55.086477 200.265025 Z M 70.263561 200.265025 " stroke="#ffffff" stroke-width="19.5912" stroke-opacity="1" stroke-miterlimit="4"/><g fill="#eeba2b" fill-opacity="1"><g transform="translate(151.224208, 307.80904)"><g><path d="M 38.171875 -9.953125 C 34.785156 -8.035156 31.546875 -6.4375 28.453125 -5.15625 C 25.359375 -3.882812 22.472656 -2.863281 19.796875 -2.09375 C 17.117188 -1.332031 14.710938 -0.789062 12.578125 -0.46875 C 10.441406 -0.15625 8.609375 0 7.078125 0 L -7.265625 0 L 3.15625 -5.828125 C 4.238281 -7.234375 5.289062 -8.640625 6.3125 -10.046875 C 7.332031 -11.453125 8.191406 -12.757812 8.890625 -13.96875 C 9.722656 -15.300781 10.488281 -16.640625 11.1875 -17.984375 C 13.164062 -22.003906 16.101562 -28.507812 20 -37.5 C 21.59375 -41.320312 23.488281 -45.878906 25.6875 -51.171875 C 27.882812 -56.460938 30.414062 -62.613281 33.28125 -69.625 C 36.15625 -76.644531 39.34375 -84.617188 42.84375 -93.546875 C 46.351562 -102.472656 50.28125 -112.488281 54.625 -123.59375 L 71.265625 -138.890625 L 108.765625 -11.765625 C 111.441406 -11.066406 114.003906 -10.617188 116.453125 -10.421875 C 118.910156 -10.234375 121.222656 -10.140625 123.390625 -10.140625 C 124.546875 -10.140625 125.597656 -10.15625 126.546875 -10.1875 C 127.503906 -10.21875 128.335938 -10.265625 129.046875 -10.328125 C 129.804688 -10.390625 130.535156 -10.488281 131.234375 -10.625 C 127.535156 -8.832031 124.316406 -7.28125 121.578125 -5.96875 C 118.835938 -4.664062 116.398438 -3.566406 114.265625 -2.671875 C 112.128906 -1.785156 110.148438 -1.117188 108.328125 -0.671875 C 106.515625 -0.222656 104.679688 0 102.828125 0 L 87.53125 0 L 92.5 -3.15625 L 77.203125 -53.859375 C 75.347656 -53.347656 73.207031 -52.851562 70.78125 -52.375 C 68.363281 -51.894531 65.476562 -51.460938 62.125 -51.078125 C 58.78125 -50.691406 54.890625 -50.335938 50.453125 -50.015625 C 46.023438 -49.703125 40.910156 -49.421875 35.109375 -49.171875 C 32.429688 -43.492188 29.972656 -38.453125 27.734375 -34.046875 C 25.503906 -29.648438 23.492188 -25.828125 21.703125 -22.578125 C 19.921875 -19.328125 18.34375 -16.582031 16.96875 -14.34375 C 15.601562 -12.113281 14.441406 -10.328125 13.484375 -8.984375 C 14.566406 -8.796875 15.773438 -8.65625 17.109375 -8.5625 C 18.453125 -8.46875 19.796875 -8.421875 21.140625 -8.421875 C 23.179688 -8.421875 25.207031 -8.5 27.21875 -8.65625 C 29.226562 -8.8125 31.0625 -8.988281 32.71875 -9.1875 C 34.625 -9.4375 36.441406 -9.691406 38.171875 -9.953125 Z M 51.5625 -60.546875 C 60.164062 -60.546875 67.976562 -60.738281 75 -61.125 L 60.359375 -109.71875 C 56.398438 -99.582031 52.78125 -90.523438 49.5 -82.546875 C 46.21875 -74.578125 43.109375 -67.242188 40.171875 -60.546875 Z M 51.5625 -60.546875 "/></g></g></g></svg>